<?xml version="1.0" encoding="UTF-8"?> <svg xmlns="http://www.w3.org/2000/svg" viewBox="0 0 135.00 32.00" data-guides="{&quot;vertical&quot;:[],&quot;horizontal&quot;:[]}"><defs></defs><path fill="#ffffff" stroke="none" fill-opacity="1" stroke-width="1" stroke-opacity="1" color="rgb(51, 51, 51)" id="tSvg5c073a1781" title="Path 1" d="M28.8942 0C29.0022 0.036 29.1102 0.072 29.2182 0.108C29.7869 0.2468 30.2927 0.5722 30.6549 1.0322C31.017 1.4922 31.2145 2.0603 31.2159 2.6457C31.2159 11.3028 31.2159 19.9598 31.2159 28.6169C31.2161 28.9678 31.1457 29.315 31.0092 29.6381C30.8725 29.9612 30.6723 30.2536 30.4205 30.4978C30.1688 30.7421 29.8704 30.9332 29.5432 31.06C29.2162 31.1867 28.8669 31.2464 28.5162 31.2356C19.9672 31.2356 11.4181 31.2356 2.869 31.2356C1.3302 31.2356 0.4393 30.5607 0.0613 29.0758C0.0433 29.0668 0.0253 29.0578 0.0073 29.0488C0.0073 20.1038 0.0073 11.1588 0.0073 2.2138C0.0433 2.1238 0.0793 2.0338 0.1153 1.9438C0.2425 1.483 0.4934 1.0658 0.8408 0.7374C1.1882 0.409 1.6189 0.182 2.0861 0.081C2.1941 0.054 2.3021 0.027 2.4101 0C11.2381 0 20.0661 0 28.8942 0ZM3.436 24.7293C3.4719 24.6393 3.5079 24.5493 3.5439 24.4593C4.2355 22.4424 5.4202 20.6303 6.9902 19.1875C8.5602 17.7448 10.4659 16.7172 12.534 16.1982C14.8297 15.6356 17.2104 15.5074 19.5532 15.8203C22.371 16.1157 25.1136 16.9111 27.6523 18.169C27.7333 18.196 27.8143 18.223 27.8953 18.25C27.9133 18.232 27.9313 18.214 27.9493 18.196C27.5443 17.7101 27.1394 17.2241 26.7344 16.7382C26.6412 16.602 26.5854 16.4437 26.5724 16.2792C26.5578 15.773 26.5127 15.2681 26.4375 14.7674C26.2476 14.0647 25.908 13.4113 25.4421 12.8522C24.9761 12.293 24.3947 11.8412 23.7377 11.5277C21.918 10.6039 19.9189 10.0881 17.8794 10.0159C17.7397 10.0243 17.6001 9.9965 17.4744 9.9349C16.4152 9.1804 15.1777 8.7152 13.8838 8.5851C13.1385 8.4887 12.3829 8.5069 11.6431 8.6391C12.7229 8.909 14.3158 9.8809 14.6127 10.4749C14.6037 10.4749 14.5947 10.4749 14.5857 10.4749C13.045 10.7589 11.5771 11.3499 10.2692 12.2125C8.9614 13.0752 7.8403 14.1919 6.9726 15.4963C5.7414 17.3091 4.803 19.3043 4.1919 21.4087C3.8409 22.4886 3.4629 23.5684 3.4629 24.7293C3.4539 24.7293 3.4449 24.7293 3.436 24.7293Z"></path><path fill="#ffffff" stroke="none" fill-opacity="1" stroke-width="1" stroke-opacity="1" color="rgb(51, 51, 51)" id="tSvg160fb706de5" title="Path 2" d="M2.4091 0C2.3012 0.027 2.1932 0.054 2.0853 0.081C1.6182 0.182 1.1877 0.4089 0.8405 0.7371C0.4932 1.0654 0.2424 1.4824 0.1153 1.943C0.0793 2.033 0.0433 2.1229 0.0073 2.2129C0.0073 1.4752 0.0073 0.7376 0.0073 0C0.8079 0 1.6085 0 2.4091 0Z"></path><path fill="#ffffff" stroke="none" fill-opacity="1" stroke-width="1" stroke-opacity="1" color="rgb(51, 51, 51)" id="tSvg1434424b5b1" title="Path 3" d="M41.0429 12.3106C41.0429 10.2768 41.0429 8.243 41.0429 6.2093C41.0349 6.0937 41.0518 5.9779 41.0924 5.8694C41.133 5.761 41.1964 5.6625 41.2781 5.5806C41.36 5.4988 41.4585 5.4354 41.567 5.3948C41.6754 5.3542 41.7913 5.3374 41.9068 5.3454C43.4366 5.3454 44.9664 5.3454 46.4963 5.3454C47.6093 5.3364 48.712 5.557 49.7359 5.9933C50.7594 6.4206 51.6497 7.1141 52.3143 8.002C52.9791 8.8898 53.3938 9.9394 53.5155 11.0417C53.7438 12.3369 53.6227 13.6695 53.1646 14.9023C52.7736 15.9994 52.0881 16.9677 51.1834 17.701C50.2786 18.4343 49.1894 18.9044 48.0351 19.0598C47.4646 19.1606 46.8867 19.2147 46.3073 19.2218C44.8225 19.2218 43.3376 19.2218 41.8528 19.2218C41.7441 19.2219 41.6366 19.2001 41.5365 19.1577C41.4364 19.1153 41.3459 19.0532 41.2703 18.9751C41.1948 18.897 41.1357 18.8046 41.0967 18.7032C41.0576 18.6018 41.0393 18.4935 41.0429 18.3849C41.0069 16.3511 40.9979 14.3173 41.0159 12.2836C41.0249 12.2926 41.0339 12.3016 41.0429 12.3106ZM43.3916 17.116C44.3815 17.116 45.3714 17.116 46.3613 17.116C48.926 17.089 51.4097 15.3342 51.2208 11.9866C51.1944 11.0216 50.8607 10.0901 50.2684 9.3278C49.6759 8.5655 48.8558 8.0121 47.9271 7.7481C46.4423 7.3161 44.9035 7.6131 43.3916 7.4781C43.3916 10.6908 43.3916 13.9034 43.3916 17.116Z"></path><path fill="#ffffff" stroke="none" fill-opacity="1" stroke-width="1" stroke-opacity="1" color="rgb(51, 51, 51)" id="tSvgfab7955193" title="Path 4" d="M93.5792 12.0947C93.6287 10.3376 94.3308 8.6618 95.5487 7.3941C96.7664 6.1264 98.4126 5.3575 100.1665 5.2375C101.5553 5.0515 102.9672 5.2804 104.226 5.8953C105.4849 6.5102 106.5328 7.4836 107.2397 8.6931C107.8256 9.655 108.1716 10.7438 108.2486 11.8676C108.3246 12.9914 108.1296 14.1171 107.6796 15.1496C107.2297 16.182 106.5378 17.0911 105.6619 17.8C104.787 18.5088 103.7541 18.9964 102.6502 19.2219C101.0904 19.6227 99.442 19.4957 97.9622 18.8608C96.4824 18.2258 95.2544 17.1187 94.4701 15.7123C93.8717 14.6023 93.574 13.3553 93.6062 12.0947C93.5972 12.0947 93.5882 12.0947 93.5792 12.0947ZM100.9764 7.4512C100.3384 7.4495 99.7059 7.5734 99.1157 7.816C98.5254 8.0585 97.9887 8.415 97.5362 8.865C97.0837 9.315 96.7243 9.8497 96.4785 10.4386C96.2326 11.0275 96.1051 11.659 96.1034 12.2972C96.1016 12.9354 96.2255 13.5676 96.4681 14.1579C96.7106 14.7481 97.0671 15.2848 97.5171 15.7373C97.9671 16.1898 98.5018 16.5492 99.0908 16.7951C99.6796 17.041 100.3114 17.1684 100.9494 17.1701C101.5923 17.1848 102.2322 17.0693 102.8302 16.8307C103.4281 16.592 103.971 16.235 104.428 15.7812C104.8839 15.3273 105.2439 14.786 105.4859 14.1897C105.7279 13.5933 105.8468 12.9542 105.8358 12.3107C105.8468 11.6695 105.7289 11.0327 105.4879 10.4382C105.2479 9.8436 104.8899 9.3036 104.437 8.8501C103.983 8.3967 103.4431 8.0391 102.8492 7.7988C102.2542 7.5585 101.6173 7.4403 100.9764 7.4512C100.9764 7.4512 100.9764 7.4512 100.9764 7.4512Z"></path><path fill="#ffffff" stroke="none" fill-opacity="1" stroke-width="1" stroke-opacity="1" color="rgb(51, 51, 51)" id="tSvg15180c6fea2" title="Path 5" d="M71.1986 9.1791C70.5957 10.4659 69.9927 11.7528 69.3898 13.0397C68.5349 14.9025 67.68 16.7653 66.8251 18.6281C66.7598 18.815 66.6342 18.9748 66.4679 19.0823C66.3017 19.1899 66.1045 19.239 65.9072 19.222C65.7279 19.1999 65.5465 19.1999 65.3672 19.222C64.9083 19.303 64.6653 19.033 64.5303 18.6551C64.4855 18.4538 64.5143 18.2431 64.6113 18.0611C65.9972 15.0375 67.383 12.0138 68.7689 8.9901C69.2548 7.9282 69.7408 6.8663 70.2267 5.8044C70.3201 5.6357 70.457 5.495 70.6232 5.397C70.7893 5.299 70.9787 5.2474 71.1716 5.2474C71.3645 5.2474 71.5539 5.299 71.72 5.397C71.8862 5.495 72.0231 5.6357 72.1165 5.8044C74.0063 9.899 75.8961 13.9936 77.7859 18.0881C77.8564 18.2085 77.8922 18.3462 77.8893 18.4858C77.8864 18.6253 77.8449 18.7613 77.7694 18.8788C77.6939 18.9961 77.5874 19.0903 77.4616 19.1509C77.3358 19.2115 77.1958 19.2361 77.057 19.222C76.85 19.222 76.643 19.222 76.436 19.222C76.2381 19.244 76.0385 19.1969 75.8712 19.0887C75.7039 18.9804 75.5791 18.8178 75.5181 18.6281C74.5552 16.5223 73.5923 14.4165 72.6294 12.3108C72.1975 11.3569 71.7655 10.403 71.3336 9.449C71.2886 9.3411 71.2436 9.2331 71.1986 9.1251C71.1986 9.1431 71.1986 9.1611 71.1986 9.1791Z"></path><path fill="#ffffff" stroke="none" fill-opacity="1" stroke-width="1" stroke-opacity="1" color="rgb(51, 51, 51)" id="tSvg7cafc567a2" title="Path 6" d="M81.3765 17.0891C81.3765 16.9992 81.3765 16.9092 81.3765 16.8192C81.3765 16.2522 81.4845 16.0633 82.0514 15.9283C82.2119 15.9162 82.3722 15.954 82.5104 16.0363C83.0503 16.3062 83.5903 16.6842 84.1302 16.9272C84.6399 17.184 85.2271 17.2418 85.777 17.0891C86.1156 17.0146 86.4243 16.8415 86.6646 16.5916C86.9048 16.3418 87.0657 16.0264 87.1269 15.6853C87.2113 15.3366 87.1775 14.9699 87.0309 14.6425C86.8843 14.3151 86.6332 14.0458 86.317 13.8765C85.741 13.6155 85.1651 13.3546 84.5891 13.0936C84.1752 12.9136 83.7612 12.7336 83.3473 12.5536C80.5936 11.3118 80.6206 7.8831 82.5644 6.2633C83.3193 5.6133 84.2692 5.2333 85.2641 5.1834C85.4699 5.1829 85.6681 5.2608 85.8185 5.4012C85.969 5.5416 86.0603 5.734 86.074 5.9393C86.074 6.1643 86.074 6.3893 86.074 6.6142C86.0776 6.7206 86.0602 6.8267 86.0228 6.9263C85.9854 7.0259 85.9287 7.1172 85.856 7.195C85.7833 7.2727 85.696 7.3353 85.599 7.3793C85.5021 7.4232 85.3975 7.4477 85.2911 7.4512C84.2382 7.5861 83.5633 8.2611 83.5903 9.179C83.5834 9.4129 83.6399 9.6444 83.754 9.8488C83.8681 10.0532 84.0354 10.2229 84.2382 10.3399C84.6763 10.5877 85.1269 10.8129 85.588 11.0148C86.128 11.2398 86.6679 11.4648 87.2079 11.6897C88.9087 12.4726 89.6646 13.6875 89.5566 15.5773C89.4486 17.3321 88.4767 18.466 86.9109 19.1139C86.3176 19.3397 85.6855 19.4464 85.0509 19.4279C84.4163 19.4094 83.7915 19.266 83.2123 19.0059C82.7803 18.844 82.4024 18.601 81.9704 18.412C81.7619 18.3284 81.5888 18.1751 81.4805 17.9782C81.3722 17.7813 81.3354 17.553 81.3765 17.3321C81.3813 17.2511 81.3813 17.17 81.3765 17.0891C81.3765 17.0891 81.3765 17.0891 81.3765 17.0891ZM115.2308 13.0936C115.2308 14.8664 115.2308 16.6392 115.2308 18.412C115.2428 18.5237 115.2298 18.6366 115.1938 18.7431C115.1588 18.8496 115.0998 18.9471 115.0238 19.029C114.9469 19.111 114.8529 19.1754 114.7489 19.218C114.6449 19.2606 114.5329 19.2803 114.4209 19.2759C114.2139 19.2759 114.007 19.2759 113.8 19.2759C113.233 19.2759 112.9361 18.9519 112.9361 18.358C112.9361 14.3174 112.9361 10.2769 112.9361 6.2363C112.9281 6.1208 112.9451 6.0049 112.9851 5.8965C113.0261 5.788 113.0891 5.6895 113.171 5.6077C113.253 5.5258 113.352 5.4624 113.46 5.4218C113.569 5.3812 113.685 5.3644 113.8 5.3724C115.8158 5.3724 117.8315 5.3724 119.8473 5.3724C120.4143 5.3724 120.7382 5.6693 120.7112 6.2363C120.7112 6.5872 120.8732 7.0192 120.4683 7.2892C120.3013 7.409 120.1063 7.4834 119.9013 7.5051C118.3535 7.5051 116.8057 7.5051 115.2578 7.5051C115.2578 8.648 115.2578 9.7909 115.2578 10.9338C116.6437 10.9338 118.0295 10.9338 119.4154 10.9338C119.6213 10.9405 119.8163 11.0252 119.9613 11.1706C120.1073 11.316 120.1913 11.5112 120.1983 11.7167C120.1983 11.8967 120.1983 12.0767 120.1983 12.2567C120.1983 12.3653 120.1763 12.4728 120.1343 12.5729C120.0923 12.673 120.0293 12.7635 119.9513 12.8391C119.8733 12.9147 119.7813 12.9737 119.6793 13.0128C119.5783 13.0519 119.4704 13.0702 119.3614 13.0666C117.9845 13.0666 116.6077 13.0666 115.2308 13.0666C115.2308 13.0756 115.2308 13.0846 115.2308 13.0936ZM130.3222 7.5051C130.3222 11.1048 130.3222 14.7044 130.3222 18.304C130.3222 18.9789 130.0522 19.2489 129.3773 19.2489C129.2063 19.2489 129.0353 19.2489 128.8643 19.2489C128.7474 19.2617 128.6294 19.2482 128.5194 19.2093C128.4084 19.1704 128.3084 19.1072 128.2254 19.0242C128.1424 18.9413 128.0784 18.8409 128.0404 18.7302C128.0014 18.6195 127.9874 18.5016 128.0004 18.385C128.0004 14.7584 128.0004 11.1318 128.0004 7.5051C126.7046 7.5051 125.4087 7.5051 124.1129 7.5051C123.9029 7.5053 123.7009 7.4237 123.5499 7.2776C123.3979 7.1315 123.3099 6.9323 123.3029 6.7222C123.3029 6.5423 123.3029 6.3623 123.3029 6.1823C123.2989 6.0749 123.3179 5.9679 123.3569 5.8679C123.3959 5.768 123.4559 5.6772 123.5319 5.6012C123.6079 5.5252 123.6989 5.4657 123.7989 5.4263C123.8989 5.387 124.0059 5.3686 124.1129 5.3724C127.4695 5.3724 130.8261 5.3724 134.1828 5.3724C134.3977 5.3724 134.6037 5.4577 134.7557 5.6096C134.9077 5.7615 134.9927 5.9675 134.9927 6.1823C134.9927 6.3623 134.9927 6.5423 134.9927 6.7222C134.9927 6.937 134.9077 7.143 134.7557 7.2949C134.6037 7.4468 134.3977 7.5321 134.1828 7.5321C133.0129 7.5321 131.843 7.5321 130.6731 7.5321C130.5562 7.5231 130.4392 7.5141 130.3222 7.5051Z"></path><path fill="#ffffff" stroke="none" fill-opacity="1" stroke-width="1" stroke-opacity="1" color="rgb(51, 51, 51)" id="tSvg14f882b1a05" title="Path 7" d="M58.321 12.2837C58.321 10.2589 58.321 8.2341 58.321 6.2093C58.313 6.0973 58.3291 5.985 58.3683 5.8798C58.4076 5.7746 58.4689 5.6791 58.5483 5.5997C58.6277 5.5203 58.7232 5.4589 58.8283 5.4197C58.9335 5.3805 59.0459 5.3644 59.1579 5.3724C59.3649 5.3724 59.5719 5.3724 59.7788 5.3724C59.8943 5.3644 60.0102 5.3813 60.1187 5.4219C60.2271 5.4624 60.3256 5.5258 60.4075 5.6077C60.4894 5.6896 60.5527 5.788 60.5932 5.8965C60.6338 6.0049 60.6507 6.1208 60.6427 6.2363C60.6427 10.2859 60.6427 14.3354 60.6427 18.385C60.6507 18.5005 60.6338 18.6164 60.5932 18.7248C60.5527 18.8333 60.4894 18.9317 60.4075 19.0136C60.3256 19.0954 60.2271 19.1588 60.1187 19.1994C60.0102 19.24 59.8943 19.2569 59.7788 19.2489C59.5809 19.2489 59.3829 19.2489 59.1849 19.2489C59.0694 19.2569 58.9535 19.24 58.845 19.1994C58.7367 19.1588 58.6382 19.0954 58.5563 19.0136C58.4744 18.9317 58.4111 18.8333 58.3705 18.7248C58.3299 18.6164 58.313 18.5005 58.321 18.385C58.321 16.3512 58.321 14.3174 58.321 12.2837ZM71.1986 19.2489C70.5957 19.2489 69.9927 19.2489 69.3898 19.2489C69.2699 19.244 69.1529 19.2106 69.0484 19.1515C68.944 19.0924 68.8552 19.0093 68.7892 18.909C68.7233 18.8089 68.6821 18.6943 68.6692 18.575C68.6563 18.4557 68.6719 18.335 68.7149 18.223C68.8049 18.016 68.8948 17.8091 68.9848 17.6021C69.052 17.4465 69.1663 17.316 69.3116 17.2288C69.4569 17.1416 69.6259 17.1022 69.7948 17.1161C70.7306 17.1161 71.6665 17.1161 72.6024 17.1161C72.7713 17.1022 72.9403 17.1416 73.0856 17.2288C73.2309 17.316 73.3452 17.4465 73.4124 17.6021C73.4754 17.7461 73.5383 17.8901 73.6013 18.034C73.7084 18.1731 73.7595 18.3473 73.7445 18.5222C73.7295 18.6972 73.6495 18.8601 73.5203 18.9789C73.3856 19.1253 73.2044 19.2206 73.0074 19.2489C72.4045 19.2489 71.8015 19.2489 71.1986 19.2489Z"></path><path fill="#ffffff" stroke="none" fill-opacity="1" stroke-width="1" stroke-opacity="1" color="rgb(51, 51, 51)" id="tSvg984abf7345" title="Path 8" d="M42.1653 26.5386C42.1921 26.5431 42.23 26.5476 42.2792 26.552C42.3284 26.5565 42.3842 26.561 42.4468 26.5654C42.5093 26.5654 42.5741 26.5677 42.6411 26.5721C42.7126 26.5721 42.7797 26.5721 42.8422 26.5721C42.9718 26.5721 43.0946 26.5632 43.2108 26.5453C43.3314 26.5275 43.4342 26.4962 43.5191 26.4515C43.6085 26.4068 43.6777 26.3487 43.7269 26.2772C43.7805 26.2014 43.8073 26.1053 43.8073 25.9891C43.8073 25.8774 43.7827 25.7858 43.7336 25.7143C43.6889 25.6383 43.6263 25.578 43.5459 25.5333C43.4655 25.4886 43.3694 25.4574 43.2577 25.4395C43.1505 25.4216 43.0344 25.4127 42.9093 25.4127C42.6613 25.4127 42.4133 25.4127 42.1653 25.4127C42.1653 25.788 42.1653 26.1633 42.1653 26.5386ZM42.8288 24.9503C42.9495 24.9503 43.0589 24.9436 43.1572 24.9302C43.2599 24.9123 43.3471 24.8833 43.4186 24.843C43.4945 24.8028 43.5526 24.7492 43.5928 24.6822C43.6375 24.6152 43.6599 24.5303 43.6599 24.4275C43.6599 24.3203 43.633 24.2354 43.5794 24.1729C43.5258 24.1103 43.4543 24.0634 43.3649 24.0321C43.28 23.9964 43.1817 23.974 43.0701 23.9651C42.9629 23.9517 42.8534 23.945 42.7417 23.945C42.6389 23.945 42.5339 23.9472 42.4267 23.9517C42.3239 23.9562 42.2368 23.9606 42.1653 23.9651C42.1653 24.2935 42.1653 24.6219 42.1653 24.9503C42.3865 24.9503 42.6076 24.9503 42.8288 24.9503ZM42.8154 27.0681C42.5518 27.0681 42.3082 27.0547 42.0849 27.0279C41.8615 27.0056 41.685 26.9788 41.5554 26.9475C41.5554 25.8171 41.5554 24.6867 41.5554 23.5562C41.685 23.525 41.8615 23.4982 42.0849 23.4759C42.3082 23.4491 42.5518 23.4357 42.8154 23.4357C42.9986 23.4357 43.1773 23.4513 43.3515 23.4826C43.5258 23.5138 43.68 23.5674 43.814 23.6434C43.9481 23.7149 44.0552 23.8154 44.1356 23.945C44.2205 24.0701 44.263 24.2265 44.263 24.4142C44.263 24.5839 44.2205 24.7291 44.1356 24.8497C44.0507 24.9704 43.9369 25.0642 43.7939 25.1313C43.9861 25.1983 44.1379 25.2988 44.2496 25.4328C44.3658 25.5624 44.4239 25.7456 44.4239 25.9824C44.4239 26.1924 44.3814 26.3666 44.2965 26.5051C44.2161 26.6436 44.1021 26.7553 43.9548 26.8402C43.8118 26.9251 43.642 26.9832 43.4454 27.0145C43.2488 27.0503 43.0388 27.0681 42.8154 27.0681Z"></path><path fill="#ffffff" stroke="none" fill-opacity="1" stroke-width="1" stroke-opacity="1" color="rgb(51, 51, 51)" id="tSvgaedb9a6e8f" title="Path 9" d="M48.5513 27.0882C48.2698 27.0882 48.0218 27.0436 47.8073 26.9542C47.5974 26.8648 47.4187 26.7397 47.2712 26.5788C47.1282 26.418 47.021 26.2282 46.9495 26.0092C46.878 25.7858 46.8422 25.54 46.8422 25.272C46.8422 25.0039 46.8802 24.7581 46.9562 24.5347C47.0366 24.3114 47.1483 24.1193 47.2913 23.9584C47.4343 23.7931 47.6086 23.6657 47.814 23.5763C48.024 23.4826 48.2564 23.4357 48.5111 23.4357C48.6674 23.4357 48.8238 23.4491 48.9802 23.4759C49.1366 23.5027 49.2863 23.5451 49.4293 23.6031C49.3823 23.7797 49.3354 23.9562 49.2885 24.1327C49.1947 24.088 49.0852 24.0522 48.9601 24.0254C48.8394 23.9986 48.7098 23.9852 48.5714 23.9852C48.2229 23.9852 47.9548 24.0947 47.7671 24.3136C47.584 24.5325 47.4924 24.852 47.4924 25.272C47.4924 25.4596 47.5125 25.6316 47.5527 25.788C47.5974 25.9444 47.6644 26.0785 47.7537 26.1902C47.8475 26.3018 47.9659 26.3889 48.1089 26.4515C48.2519 26.5096 48.4262 26.5386 48.6316 26.5386C48.797 26.5386 48.9467 26.523 49.0807 26.4917C49.2148 26.4604 49.3198 26.4269 49.3958 26.3912C49.4248 26.5655 49.4538 26.7397 49.4829 26.914C49.4471 26.9363 49.3958 26.9587 49.3287 26.981C49.2617 26.9989 49.1857 27.0145 49.1008 27.0279C49.0159 27.0458 48.9243 27.0592 48.826 27.0681C48.7322 27.0815 48.6406 27.0882 48.5513 27.0882Z"></path><path fill="#ffffff" stroke="none" fill-opacity="1" stroke-width="1" stroke-opacity="1" color="rgb(51, 51, 51)" id="tSvg2028f3e10a" title="Path 10" d="M51.7672 25.272C51.7672 24.9637 51.8118 24.6956 51.9012 24.4677C51.9906 24.2354 52.109 24.0433 52.2564 23.8914C52.4038 23.7394 52.5736 23.6255 52.7658 23.5495C52.9579 23.4737 53.1545 23.4357 53.3555 23.4357C53.8247 23.4357 54.1843 23.583 54.4345 23.878C54.6848 24.1684 54.8099 24.6129 54.8099 25.2117C54.8099 25.2385 54.8099 25.2742 54.8099 25.3189C54.8099 25.3591 54.8076 25.397 54.8032 25.4328C54.0079 25.4328 53.2126 25.4328 52.4172 25.4328C52.444 25.7947 52.549 26.0695 52.7322 26.2572C52.9154 26.4448 53.2014 26.5386 53.5901 26.5386C53.809 26.5386 53.9922 26.5207 54.1396 26.485C54.2915 26.4448 54.4055 26.4068 54.4814 26.3711C54.5105 26.5454 54.5395 26.7196 54.5686 26.8939C54.4926 26.9341 54.3586 26.9765 54.1664 27.0212C53.9788 27.0659 53.7644 27.0882 53.5231 27.0882C53.2192 27.0882 52.9557 27.0436 52.7322 26.9542C52.5133 26.8604 52.3323 26.733 52.1894 26.5721C52.0464 26.4113 51.9392 26.2215 51.8677 26.0025C51.8007 25.7791 51.7672 25.5356 51.7672 25.272ZM54.1597 24.9302C54.1642 24.6487 54.0928 24.4186 53.9453 24.2399C53.8023 24.0567 53.6035 23.9651 53.3488 23.9651C53.2059 23.9651 53.0785 23.9941 52.9668 24.0522C52.8596 24.1058 52.768 24.1773 52.692 24.2667C52.6161 24.3561 52.5557 24.4588 52.5111 24.5749C52.4708 24.6911 52.444 24.8095 52.4306 24.9302C53.007 24.9302 53.5834 24.9302 54.1597 24.9302ZM52.7054 22.8794C52.6027 22.8794 52.5111 22.8436 52.4306 22.7721C52.3547 22.6962 52.3167 22.6001 52.3167 22.484C52.3167 22.3678 52.3547 22.274 52.4306 22.2025C52.5111 22.1265 52.6027 22.0885 52.7054 22.0885C52.8082 22.0885 52.8976 22.1265 52.9735 22.2025C53.054 22.274 53.0942 22.3678 53.0942 22.484C53.0942 22.6001 53.054 22.6962 52.9735 22.7721C52.8976 22.8436 52.8082 22.8794 52.7054 22.8794ZM53.9788 22.8794C53.8761 22.8794 53.7845 22.8436 53.704 22.7721C53.6281 22.6962 53.5901 22.6001 53.5901 22.484C53.5901 22.3678 53.6281 22.274 53.704 22.2025C53.7845 22.1265 53.8761 22.0885 53.9788 22.0885C54.0816 22.0885 54.1709 22.1265 54.2468 22.2025C54.3273 22.274 54.3675 22.3678 54.3675 22.484C54.3675 22.6001 54.3273 22.6962 54.2468 22.7721C54.1709 22.8436 54.0816 22.8794 53.9788 22.8794Z"></path><path fill="#ffffff" stroke="none" fill-opacity="1" stroke-width="1" stroke-opacity="1" color="rgb(51, 51, 51)" id="tSvg149bc78e88c" title="Path 11" d="M63.6768 27.0078C63.469 27.0078 63.2613 27.0078 63.0535 27.0078C63.0535 26.0203 63.0535 25.0329 63.0535 24.0455C62.5352 24.0455 62.0169 24.0455 61.4987 24.0455C61.4987 25.0329 61.4987 26.0203 61.4987 27.0078C61.2909 27.0078 61.0832 27.0078 60.8754 27.0078C60.8754 25.8461 60.8754 24.6844 60.8754 23.5227C61.8092 23.5227 62.743 23.5227 63.6768 23.5227C63.6768 24.6844 63.6768 25.8461 63.6768 27.0078Z"></path><path fill="#ffffff" stroke="none" fill-opacity="1" stroke-width="1" stroke-opacity="1" color="rgb(51, 51, 51)" id="tSvg1577b3e9082" title="Path 12" d="M69.6357 25.2653C69.6357 25.5423 69.5955 25.7925 69.515 26.0159C69.4346 26.2393 69.3207 26.4314 69.1732 26.5922C69.0302 26.7531 68.8583 26.8782 68.6572 26.9676C68.4561 27.0525 68.2372 27.0949 68.0003 27.0949C67.7636 27.0949 67.5447 27.0525 67.3436 26.9676C67.1425 26.8782 66.9683 26.7531 66.8209 26.5922C66.6779 26.4314 66.5662 26.2393 66.4857 26.0159C66.4053 25.7925 66.3651 25.5423 66.3651 25.2653C66.3651 24.9927 66.4053 24.7447 66.4857 24.5213C66.5662 24.2935 66.6779 24.0991 66.8209 23.9383C66.9683 23.7774 67.1425 23.6545 67.3436 23.5696C67.5447 23.4804 67.7636 23.4357 68.0003 23.4357C68.2372 23.4357 68.4561 23.4804 68.6572 23.5696C68.8583 23.6545 69.0302 23.7774 69.1732 23.9383C69.3207 24.0991 69.4346 24.2935 69.515 24.5213C69.5955 24.7447 69.6357 24.9927 69.6357 25.2653ZM68.9855 25.2653C68.9855 24.8721 68.8962 24.5615 68.7175 24.3337C68.5433 24.1014 68.3042 23.9852 68.0003 23.9852C67.6966 23.9852 67.4553 24.1014 67.2766 24.3337C67.1023 24.5615 67.0153 24.8721 67.0153 25.2653C67.0153 25.6584 67.1023 25.9712 67.2766 26.2036C67.4553 26.4314 67.6966 26.5453 68.0003 26.5453C68.3042 26.5453 68.5433 26.4314 68.7175 26.2036C68.8962 25.9712 68.9855 25.6584 68.9855 25.2653Z"></path><path fill="#ffffff" stroke="none" fill-opacity="1" stroke-width="1" stroke-opacity="1" color="rgb(51, 51, 51)" id="tSvg17d834cec8e" title="Path 13" d="M72.078 24.709C72.6298 24.709 73.1816 24.709 73.7334 24.709C73.7334 24.9034 73.7334 25.0977 73.7334 25.2921C73.1816 25.2921 72.6298 25.2921 72.078 25.2921C72.078 25.0977 72.078 24.9034 72.078 24.709Z"></path><path fill="#ffffff" stroke="none" fill-opacity="1" stroke-width="1" stroke-opacity="1" color="rgb(51, 51, 51)" id="tSvg15a22c118e" title="Path 14" d="M79.1072 27.0078C78.8995 27.0078 78.6917 27.0078 78.4839 27.0078C78.4839 26.494 78.4839 25.9801 78.4839 25.4663C77.9478 25.4663 77.4116 25.4663 76.8755 25.4663C76.8755 25.9801 76.8755 26.494 76.8755 27.0078C76.6677 27.0078 76.4599 27.0078 76.2522 27.0078C76.2522 25.8461 76.2522 24.6844 76.2522 23.5227C76.4599 23.5227 76.6677 23.5227 76.8755 23.5227C76.8755 23.9964 76.8755 24.47 76.8755 24.9436C77.4116 24.9436 77.9478 24.9436 78.4839 24.9436C78.4839 24.47 78.4839 23.9964 78.4839 23.5227C78.6917 23.5227 78.8995 23.5227 79.1072 23.5227C79.1072 24.6844 79.1072 25.8461 79.1072 27.0078Z"></path><path fill="#ffffff" stroke="none" fill-opacity="1" stroke-width="1" stroke-opacity="1" color="rgb(51, 51, 51)" id="tSvgbfbcf102ed" title="Path 15" d="M83.1682 26.5587C83.3156 26.5587 83.4452 26.5565 83.5569 26.552C83.673 26.5431 83.7691 26.5297 83.845 26.5118C83.845 26.1656 83.845 25.8193 83.845 25.473C83.8003 25.4507 83.7266 25.4328 83.6239 25.4194C83.5256 25.4015 83.405 25.3926 83.262 25.3926C83.1682 25.3926 83.0676 25.3993 82.9604 25.4127C82.8576 25.4261 82.7615 25.4551 82.6723 25.4998C82.5874 25.54 82.5159 25.5981 82.4578 25.6741C82.3997 25.7456 82.3706 25.8416 82.3706 25.9623C82.3706 26.1857 82.4421 26.342 82.5851 26.4314C82.728 26.5163 82.9224 26.5587 83.1682 26.5587ZM83.1145 23.4357C83.3648 23.4357 83.5748 23.4692 83.7445 23.5361C83.9188 23.5987 84.0573 23.6903 84.1601 23.8109C84.2673 23.9271 84.3433 24.0679 84.388 24.2332C84.4326 24.3941 84.455 24.5727 84.455 24.7693C84.455 25.4954 84.455 26.2214 84.455 26.9475C84.4014 26.9564 84.3254 26.9698 84.2271 26.9877C84.1333 27.0011 84.026 27.0145 83.9054 27.0279C83.7847 27.0413 83.6529 27.0525 83.51 27.0614C83.3715 27.0748 83.233 27.0815 83.0944 27.0815C82.8978 27.0815 82.7169 27.0614 82.5516 27.0212C82.3863 26.981 82.2433 26.9184 82.1226 26.8335C82.002 26.7442 81.9082 26.628 81.8411 26.485C81.7742 26.342 81.7407 26.1701 81.7407 25.969C81.7407 25.7769 81.7787 25.6115 81.8545 25.473C81.935 25.3346 82.0422 25.2229 82.1763 25.138C82.3103 25.0531 82.4667 24.9905 82.6455 24.9503C82.8241 24.9101 83.0118 24.89 83.2084 24.89C83.2709 24.89 83.3357 24.8944 83.4028 24.9034C83.4698 24.9078 83.5323 24.9168 83.5904 24.9302C83.6529 24.9391 83.7065 24.9481 83.7512 24.957C83.7959 24.9659 83.8272 24.9726 83.845 24.9771C83.845 24.919 83.845 24.8609 83.845 24.8028C83.845 24.7001 83.8339 24.5995 83.8115 24.5012C83.7892 24.3985 83.749 24.3092 83.6909 24.2332C83.6328 24.1528 83.5525 24.0902 83.4497 24.0455C83.3514 23.9964 83.2218 23.9718 83.0609 23.9718C82.8554 23.9718 82.6745 23.9874 82.5181 24.0187C82.3662 24.0455 82.2522 24.0746 82.1763 24.1058C82.1517 23.9338 82.1271 23.7618 82.1025 23.5897C82.183 23.554 82.317 23.5205 82.5047 23.4893C82.6924 23.4536 82.8956 23.4357 83.1145 23.4357Z"></path><path fill="#ffffff" stroke="none" fill-opacity="1" stroke-width="1" stroke-opacity="1" color="rgb(51, 51, 51)" id="tSvg123d0e74e2e" title="Path 16" d="M88.8143 27.0882C88.5328 27.0882 88.2848 27.0436 88.0704 26.9542C87.8604 26.8648 87.6817 26.7397 87.5342 26.5788C87.3912 26.418 87.2841 26.2282 87.2126 26.0092C87.1411 25.7858 87.1053 25.54 87.1053 25.272C87.1053 25.0039 87.1433 24.7581 87.2193 24.5347C87.2997 24.3114 87.4113 24.1193 87.5543 23.9584C87.6973 23.7931 87.8716 23.6657 88.0771 23.5763C88.287 23.4826 88.5194 23.4357 88.7741 23.4357C88.9305 23.4357 89.0869 23.4491 89.2432 23.4759C89.3996 23.5027 89.5493 23.5451 89.6923 23.6031C89.6454 23.7797 89.5984 23.9562 89.5515 24.1327C89.4577 24.088 89.3482 24.0522 89.2231 24.0254C89.1025 23.9986 88.9729 23.9852 88.8344 23.9852C88.4859 23.9852 88.2179 24.0947 88.0302 24.3136C87.847 24.5325 87.7554 24.852 87.7554 25.272C87.7554 25.4596 87.7755 25.6316 87.8157 25.788C87.8604 25.9444 87.9274 26.0785 88.0168 26.1902C88.1106 26.3018 88.229 26.3889 88.3719 26.4515C88.5149 26.5096 88.6892 26.5386 88.8947 26.5386C89.0601 26.5386 89.2097 26.523 89.3437 26.4917C89.4778 26.4604 89.5828 26.4269 89.6587 26.3912C89.6878 26.5655 89.7168 26.7397 89.7459 26.914C89.7101 26.9363 89.6587 26.9587 89.5917 26.981C89.5247 26.9989 89.4487 27.0145 89.3638 27.0279C89.2789 27.0458 89.1873 27.0592 89.0891 27.0681C88.9953 27.0815 88.9037 27.0882 88.8143 27.0882Z"></path><path fill="#ffffff" stroke="none" fill-opacity="1" stroke-width="1" stroke-opacity="1" color="rgb(51, 51, 51)" id="tSvg13b4b0a3318" title="Path 17" d="M94.7823 23.5227C94.7823 23.697 94.7823 23.8712 94.7823 24.0455C94.4048 24.0455 94.0272 24.0455 93.6497 24.0455C93.6497 25.0329 93.6497 26.0203 93.6497 27.0078C93.4419 27.0078 93.2342 27.0078 93.0264 27.0078C93.0264 26.0203 93.0264 25.0329 93.0264 24.0455C92.6489 24.0455 92.2713 24.0455 91.8938 24.0455C91.8938 23.8712 91.8938 23.697 91.8938 23.5227C92.8566 23.5227 93.8195 23.5227 94.7823 23.5227Z"></path><path fill="#ffffff" stroke="none" fill-opacity="1" stroke-width="1" stroke-opacity="1" color="rgb(51, 51, 51)" id="tSvgff3dc79076" title="Path 18" d="M100.3104 25.2653C100.3104 25.5423 100.2704 25.7925 100.1905 26.0159C100.1095 26.2393 99.9957 26.4314 99.8483 26.5922C99.7053 26.7531 99.5333 26.8782 99.3322 26.9676C99.1312 27.0525 98.9122 27.0949 98.6754 27.0949C98.4386 27.0949 98.2197 27.0525 98.0187 26.9676C97.8176 26.8782 97.6433 26.7531 97.4958 26.5922C97.353 26.4314 97.2412 26.2393 97.1608 26.0159C97.0804 25.7925 97.0402 25.5423 97.0402 25.2653C97.0402 24.9927 97.0804 24.7447 97.1608 24.5213C97.2412 24.2935 97.353 24.0991 97.4958 23.9383C97.6433 23.7774 97.8176 23.6545 98.0187 23.5696C98.2197 23.4804 98.4386 23.4357 98.6754 23.4357C98.9122 23.4357 99.1312 23.4804 99.3322 23.5696C99.5333 23.6545 99.7053 23.7774 99.8483 23.9383C99.9957 24.0991 100.1095 24.2935 100.1905 24.5213C100.2704 24.7447 100.3104 24.9927 100.3104 25.2653ZM99.6606 25.2653C99.6606 24.8721 99.5712 24.5615 99.3925 24.3337C99.2183 24.1014 98.9793 23.9852 98.6754 23.9852C98.3717 23.9852 98.1304 24.1014 97.9516 24.3337C97.7774 24.5615 97.6902 24.8721 97.6902 25.2653C97.6902 25.6584 97.7774 25.9712 97.9516 26.2036C98.1304 26.4314 98.3717 26.5453 98.6754 26.5453C98.9793 26.5453 99.2183 26.4314 99.3925 26.2036C99.5712 25.9712 99.6606 25.6584 99.6606 25.2653Z"></path><path fill="#ffffff" stroke="none" fill-opacity="1" stroke-width="1" stroke-opacity="1" color="rgb(51, 51, 51)" id="tSvgd1ea5ac714" title="Path 19" d="M104.438 25.654C104.371 25.654 104.306 25.654 104.244 25.654C104.181 25.6495 104.121 25.645 104.063 25.6406C103.92 25.855 103.7811 26.0852 103.6471 26.3308C103.5181 26.5721 103.4011 26.7978 103.2991 27.0078C103.0891 27.0078 102.8792 27.0078 102.6692 27.0078C102.7222 26.8782 102.7852 26.7464 102.8562 26.6124C102.9282 26.4738 102.9991 26.3398 103.0711 26.2103C103.1471 26.0807 103.2231 25.9578 103.2991 25.8416C103.3751 25.7255 103.4461 25.6205 103.5131 25.5266C103.3881 25.4819 103.2851 25.4283 103.2051 25.3658C103.1241 25.2988 103.0601 25.2251 103.0101 25.1447C102.9612 25.0642 102.9262 24.9793 102.9032 24.89C102.8852 24.7961 102.8762 24.7023 102.8762 24.6084C102.8762 24.4119 102.9122 24.2399 102.9842 24.0924C103.0601 23.945 103.1621 23.8243 103.2921 23.7305C103.4211 23.6322 103.5731 23.5585 103.7481 23.5093C103.926 23.4603 104.121 23.4357 104.331 23.4357C104.626 23.4357 104.8759 23.4491 105.0819 23.4759C105.2869 23.5027 105.4589 23.5339 105.5979 23.5696C105.5979 24.7157 105.5979 25.8617 105.5979 27.0078C105.3922 27.0078 105.1866 27.0078 104.9809 27.0078C104.9809 26.5565 104.9809 26.1053 104.9809 25.654C104.8 25.654 104.619 25.654 104.438 25.654ZM104.9809 23.9852C104.9319 23.9763 104.8489 23.9673 104.733 23.9584C104.621 23.9495 104.492 23.945 104.344 23.945C104.09 23.945 103.8841 23.9986 103.7281 24.1058C103.5711 24.2086 103.4931 24.374 103.4931 24.6017C103.4931 24.8252 103.5731 24.9793 103.7341 25.0642C103.8951 25.1491 104.103 25.1916 104.358 25.1916C104.5656 25.1916 104.7733 25.1916 104.9809 25.1916C104.9809 24.7894 104.9809 24.3873 104.9809 23.9852Z"></path><path fill="#ffffff" stroke="none" fill-opacity="1" stroke-width="1" stroke-opacity="1" color="rgb(51, 51, 51)" id="tSvg54aa232b50" title="Path 20" d="M108.4786 27.0078C108.4786 25.8461 108.4786 24.6844 108.4786 23.5227C108.6862 23.5227 108.8938 23.5227 109.1015 23.5227C109.1015 24.5124 109.1015 25.5021 109.1015 26.4917C109.5304 26.4917 109.9594 26.4917 110.3883 26.4917C110.3883 25.5021 110.3883 24.5124 110.3883 23.5227C110.596 23.5227 110.8036 23.5227 111.0113 23.5227C111.0113 24.5124 111.0113 25.5021 111.0113 26.4917C111.4402 26.4917 111.8692 26.4917 112.2981 26.4917C112.2981 25.5021 112.2981 24.5124 112.2981 23.5227C112.5061 23.5227 112.7141 23.5227 112.9221 23.5227C112.9221 24.5124 112.9221 25.5021 112.9221 26.4917C113.0784 26.4917 113.2347 26.4917 113.391 26.4917C113.391 26.9877 113.391 27.4836 113.391 27.9796C113.1944 27.9796 112.9977 27.9796 112.8011 27.9796C112.8011 27.6556 112.8011 27.3317 112.8011 27.0078C111.3602 27.0078 109.9194 27.0078 108.4786 27.0078Z"></path><path fill="#ffffff" stroke="none" fill-opacity="1" stroke-width="1" stroke-opacity="1" color="rgb(51, 51, 51)" id="tSvg57a9840b3a" title="Path 21" d="M115.6828 25.272C115.6828 24.9637 115.7278 24.6956 115.8168 24.4677C115.9057 24.2354 116.0247 24.0433 116.1717 23.8914C116.3197 23.7394 116.4897 23.6255 116.6817 23.5495C116.8736 23.4737 117.0706 23.4357 117.2716 23.4357C117.7405 23.4357 118.0995 23.583 118.3505 23.878C118.6005 24.1684 118.7254 24.6129 118.7254 25.2117C118.7254 25.2385 118.7254 25.2742 118.7254 25.3189C118.7254 25.3591 118.7234 25.397 118.7184 25.4328C117.9232 25.4328 117.1279 25.4328 116.3327 25.4328C116.3597 25.7947 116.4647 26.0695 116.6477 26.2572C116.8306 26.4448 117.1166 26.5386 117.5056 26.5386C117.7246 26.5386 117.9075 26.5207 118.0555 26.485C118.2075 26.4448 118.3215 26.4068 118.3975 26.3711C118.4265 26.5454 118.4555 26.7196 118.4845 26.8939C118.4085 26.9341 118.2745 26.9765 118.0825 27.0212C117.8945 27.0659 117.6796 27.0882 117.4386 27.0882C117.1346 27.0882 116.8716 27.0436 116.6477 26.9542C116.4287 26.8604 116.2477 26.733 116.1047 26.5721C115.9617 26.4113 115.8548 26.2215 115.7838 26.0025C115.7168 25.7791 115.6828 25.5356 115.6828 25.272ZM118.0755 24.9302C118.0795 24.6487 118.0085 24.4186 117.8605 24.2399C117.7176 24.0567 117.5196 23.9651 117.2646 23.9651C117.1216 23.9651 116.9946 23.9941 116.8826 24.0522C116.7757 24.1058 116.6837 24.1773 116.6077 24.2667C116.5317 24.3561 116.4717 24.4588 116.4267 24.5749C116.3867 24.6911 116.3597 24.8095 116.3467 24.9302C116.923 24.9302 117.4992 24.9302 118.0755 24.9302Z"></path><path fill="#ffffff" stroke="none" fill-opacity="1" stroke-width="1" stroke-opacity="1" color="rgb(51, 51, 51)" id="tSvg2c87d135bf" title="Path 22" d="M122.0941 24.4409C122.0491 24.8833 122.0161 25.3256 121.9931 25.7679C121.9711 26.2058 121.9531 26.6191 121.9401 27.0078C121.7411 27.0078 121.5421 27.0078 121.3432 27.0078C121.3522 26.7352 121.3652 26.4515 121.3832 26.1567C121.4012 25.8573 121.4211 25.5579 121.4441 25.2586C121.4661 24.9548 121.4911 24.6576 121.5171 24.3673C121.5441 24.0723 121.5731 23.7908 121.6051 23.5227C121.7948 23.5227 121.9844 23.5227 122.1741 23.5227C122.3171 23.7551 122.485 24.0746 122.677 24.4811C122.869 24.8833 123.09 25.3479 123.3409 25.8752C123.5909 25.3479 123.8119 24.8833 124.0039 24.4811C124.1958 24.0746 124.3638 23.7551 124.5068 23.5227C124.6988 23.5227 124.8908 23.5227 125.0828 23.5227C125.1137 23.7908 125.1437 24.0723 125.1697 24.3673C125.1967 24.6576 125.2217 24.9548 125.2437 25.2586C125.2657 25.5579 125.2867 25.8573 125.3037 26.1567C125.3217 26.4515 125.3357 26.7352 125.3447 27.0078C125.1391 27.0078 124.9334 27.0078 124.7278 27.0078C124.7148 26.6191 124.6968 26.2058 124.6738 25.7679C124.6518 25.3256 124.6178 24.8833 124.5738 24.4409C124.5018 24.5794 124.4198 24.747 124.3258 24.9436C124.2318 25.1357 124.1379 25.3323 124.0439 25.5333C123.9549 25.7344 123.8699 25.9265 123.7899 26.1098C123.7089 26.2929 123.6469 26.4381 123.6019 26.5453C123.4276 26.5453 123.2533 26.5453 123.079 26.5453C123.03 26.4336 122.963 26.2862 122.878 26.103C122.798 25.9198 122.71 25.7277 122.617 25.5266C122.527 25.3212 122.436 25.1223 122.3421 24.9302C122.2481 24.7336 122.1651 24.5705 122.0941 24.4409Z"></path><path fill="#ffffff" stroke="none" fill-opacity="1" stroke-width="1" stroke-opacity="1" color="rgb(51, 51, 51)" id="tSvg34ab72d456" title="Path 23" d="M127.7335 27.6579C127.7825 27.6802 127.8445 27.7003 127.9204 27.7182C128.0014 27.7405 128.0794 27.7517 128.1554 27.7517C128.4014 27.7517 128.5934 27.6959 128.7314 27.5841C128.8703 27.4769 128.9953 27.3004 129.1073 27.0547C128.8253 26.5185 128.5624 25.9511 128.3164 25.3523C128.0754 24.7492 127.8744 24.1394 127.7135 23.5227C127.9368 23.5227 128.1601 23.5227 128.3834 23.5227C128.4324 23.7238 128.4904 23.9405 128.5574 24.1729C128.6294 24.4052 128.7074 24.6442 128.7924 24.89C128.8773 25.1357 128.9683 25.3814 129.0673 25.6272C129.1653 25.8729 129.2683 26.1098 129.3753 26.3375C129.5453 25.8685 129.6923 25.4037 129.8172 24.9436C129.9422 24.4833 130.0612 24.0098 130.1732 23.5227C130.3875 23.5227 130.6018 23.5227 130.8161 23.5227C130.6551 24.1796 130.4762 24.8118 130.2802 25.4194C130.0832 26.0226 129.8712 26.5878 129.6433 27.1151C129.5543 27.316 129.4603 27.4881 129.3613 27.6311C129.2683 27.7785 129.1633 27.8992 129.0463 27.993C128.9303 28.0868 128.7983 28.156 128.6514 28.2007C128.5084 28.2454 128.3454 28.2677 128.1624 28.2677C128.1134 28.2677 128.0614 28.2632 128.0084 28.2543C127.9544 28.2498 127.9004 28.2409 127.8475 28.2275C127.7985 28.2186 127.7515 28.2074 127.7065 28.194C127.6665 28.1806 127.6375 28.1694 127.6195 28.1605C127.6575 27.993 127.6955 27.8254 127.7335 27.6579Z"></path></svg> 